<?xml version="1.0" encoding="UTF-8"?>
<svg width="15px" height="15px" viewBox="0 0 15 15" version="1.1" xmlns="http://www.w3.org/2000/svg" xmlns:xlink="http://www.w3.org/1999/xlink">
    <!-- Generator: Sketch 50 (54983) - http://www.bohemiancoding.com/sketch -->
    <title>icon/Hotel</title>
    <desc>Created with Sketch.</desc>
    <defs></defs>
    <g id="icon/Hotel" stroke="none" stroke-width="1" fill="none" fill-rule="evenodd">
        <path d="M14.0625,14.0625 L15,14.0625 L15,15 L0,15 L0,14.0625 L0.9375,14.0625 L0.9375,0 L7.5,0 L7.5,5.625 L14.0625,5.625 L14.0625,14.0625 Z M1.875,0.9375 L1.875,2.8125 L3.75,2.8125 L3.75,0.9375 L1.875,0.9375 Z M1.875,3.75 L1.875,5.625 L3.75,5.625 L3.75,3.75 L1.875,3.75 Z M1.875,6.5625 L1.875,8.4375 L3.75,8.4375 L3.75,6.5625 L1.875,6.5625 Z M1.875,9.375 L1.875,11.25 L3.75,11.25 L3.75,9.375 L1.875,9.375 Z M5.625,14.0625 L5.625,12.1875 L2.8125,12.1875 L2.8125,14.0625 L5.625,14.0625 Z M6.5625,11.25 L6.5625,9.375 L4.6875,9.375 L4.6875,11.25 L6.5625,11.25 Z M6.5625,8.4375 L6.5625,6.5625 L4.6875,6.5625 L4.6875,8.4375 L6.5625,8.4375 Z M6.5625,5.625 L6.5625,3.75 L4.6875,3.75 L4.6875,5.625 L6.5625,5.625 Z M6.5625,2.8125 L6.5625,0.9375 L4.6875,0.9375 L4.6875,2.8125 L6.5625,2.8125 Z M8.4375,6.5625 L8.4375,8.4375 L10.3125,8.4375 L10.3125,6.5625 L8.4375,6.5625 Z M8.4375,9.375 L8.4375,11.25 L10.3125,11.25 L10.3125,9.375 L8.4375,9.375 Z M12.1875,14.0625 L12.1875,12.1875 L9.375,12.1875 L9.375,14.0625 L12.1875,14.0625 Z M13.125,11.25 L13.125,9.375 L11.25,9.375 L11.25,11.25 L13.125,11.25 Z M13.125,8.4375 L13.125,6.5625 L11.25,6.5625 L11.25,8.4375 L13.125,8.4375 Z" fill="#009DDC"></path>
    </g>
</svg>