<svg xmlns="http://www.w3.org/2000/svg" width="14" height="14" viewBox="0 0 14 14">
    <path fill="#1CA8DE" fill-rule="evenodd" d="M1.248 14l-.444-.027a.894.894 0 0 1-.702-.383c-.095-.128-.124-.296-.086-.506a1.52 1.52 0 0 1 .172-.506l.315-.683.544-1.053a8.74 8.74 0 0 1 1.289-1.873c.305-.328.62-.483.945-.465.324.018.61.082.859.191.133.055.277.16.43.315.152.155.286.287.4.396.172.128.406.26.702.397.296.136.673.205 1.131.205h.601c.458 0 .836-.069 1.131-.205a4.04 4.04 0 0 0 .702-.397c.115-.11.248-.241.4-.396.154-.155.297-.27.43-.342.21-.11.468-.164.774-.164.305 0 .6.155.887.465a7.905 7.905 0 0 1 1.26 1.886l.516 1.067.315.656c.057.146.11.324.157.533.048.21.024.379-.071.506a.883.883 0 0 1-.66.356l-.4.027H1.248zm5.727-5.715c-1.012 0-1.88-.41-2.606-1.23-.725-.82-1.088-1.814-1.088-2.98 0-1.167.363-2.138 1.088-2.913C5.094.387 5.963 0 6.975 0c1.03 0 1.909.387 2.634 1.162.726.775 1.088 1.746 1.088 2.912 0 1.149-.362 2.138-1.088 2.967-.725.83-1.603 1.244-2.634 1.244z"/>
</svg>
