<svg style="width:16px; height:16px" viewBox="0 0 16 16"><path fill="#111" fill-rule="evenodd" d="M14.868 3.16L11.864 6.2c.276 1.252.607 2.779.995 4.581.388 1.802.57 2.929.545 3.38 0 .65-.194 1.032-.582 1.144-.388.113-.732-.056-1.033-.506-.275-.451-.77-1.246-1.483-2.385a357.369 357.369 0 0 1-1.783-2.872c-.35.275-.82.651-1.408 1.127l-1.67 1.351.112 2.703L4.43 16l-1.314-3.154L0 11.495l1.277-1.09 3.04.113a29.53 29.53 0 0 1 1.146-1.595c.413-.538.77-.983 1.07-1.333-.776-.5-1.702-1.089-2.778-1.765a229.086 229.086 0 0 1-2.253-1.427c-.45-.3-.62-.644-.507-1.032.113-.388.494-.582 1.145-.582.476 0 1.62.156 3.436.47 1.814.312 3.285.569 4.411.769l2.854-2.891c.3-.275.8-.57 1.501-.882.701-.313 1.19-.332 1.465-.057.275.276.256.77-.057 1.483-.313.714-.607 1.208-.882 1.483z"/></svg>
