<?xml version="1.0" encoding="UTF-8"?>
<svg width="15px" height="15px" viewBox="0 0 15 15" version="1.1" xmlns="http://www.w3.org/2000/svg" xmlns:xlink="http://www.w3.org/1999/xlink">
    <!-- Generator: Sketch 50 (54983) - http://www.bohemiancoding.com/sketch -->
    <title>icon/train</title>
    <desc>Created with Sketch.</desc>
    <defs>
        <polygon id="path-1" points="0 0 10.8756 0 10.8756 14.9998 0 14.9998"></polygon>
    </defs>
    <g id="icon/train" stroke="none" stroke-width="1" fill="none" fill-rule="evenodd">
        <g id="Page-1" transform="translate(2.000000, 0.000000)">
            <mask id="mask-2" fill="white">
                <use xlink:href="#path-1"></use>
            </mask>
            <g id="Clip-2"></g>
            <path d="M2.9736,13.3648 L3.5546,12.5258 L7.3216,12.5258 L7.9016,13.3648 L2.9736,13.3648 Z M2.1686,10.0818 C2.0056,9.8978 1.9246,9.6738 1.9246,9.4088 C1.9246,9.1648 2.0116,8.9558 2.1846,8.7828 C2.3576,8.6098 2.5666,8.5238 2.8106,8.5238 C3.0756,8.5238 3.2936,8.6048 3.4676,8.7678 C3.6406,8.9308 3.7276,9.1448 3.7276,9.4088 C3.7276,9.6738 3.6406,9.8978 3.4676,10.0818 C3.2936,10.2648 3.0756,10.3568 2.8106,10.3568 C2.5456,10.3568 2.3316,10.2648 2.1686,10.0818 Z M1.8946,3.4928 C1.8946,3.3918 1.9136,3.2798 1.9546,3.1568 C2.0166,3.0548 2.0876,2.9528 2.1686,2.8518 C2.2306,2.7698 2.3166,2.6988 2.4286,2.6378 C2.5406,2.5768 2.6586,2.5458 2.7806,2.5458 L8.0956,2.5458 C8.1766,2.5458 8.2796,2.5768 8.4016,2.6378 C8.4826,2.6788 8.5746,2.7398 8.6756,2.8218 C8.7576,2.8828 8.8186,2.9638 8.8596,3.0658 C8.9206,3.1468 8.9516,3.2488 8.9516,3.3708 L8.9516,5.1738 C8.9516,5.2758 8.9206,5.3718 8.8596,5.4638 C8.7976,5.5548 8.7276,5.6418 8.6456,5.7228 C8.5436,5.8048 8.4426,5.8658 8.3396,5.9068 C8.2586,5.9478 8.1576,5.9678 8.0346,5.9678 L2.8106,5.9678 C2.7896,5.9678 2.7596,5.9628 2.7186,5.9528 C2.6776,5.9428 2.6476,5.9268 2.6266,5.9068 C2.4236,5.8858 2.2506,5.7898 2.1076,5.6158 C1.9646,5.4438 1.8946,5.2548 1.8946,5.0518 L1.8946,3.4928 Z M8.6756,10.0818 C8.5136,10.2648 8.2986,10.3568 8.0346,10.3568 C7.7696,10.3568 7.5506,10.2648 7.3776,10.0818 C7.2046,9.8978 7.1186,9.6738 7.1186,9.4088 C7.1186,9.1448 7.2096,8.9308 7.3936,8.7678 C7.5766,8.6048 7.7896,8.5238 8.0346,8.5238 C8.2986,8.5238 8.5136,8.6098 8.6756,8.7828 C8.8386,8.9558 8.9206,9.1648 8.9206,9.4088 C8.9206,9.6738 8.8386,9.8978 8.6756,10.0818 Z M9.0326,14.9998 L10.8756,14.9998 L8.5846,11.5168 L8.5536,11.4558 C8.5536,11.4358 8.5586,11.4258 8.5696,11.4258 C8.5786,11.4258 8.5846,11.4158 8.5846,11.3948 C8.9106,11.2728 9.2056,11.1098 9.4706,10.9068 C9.7356,10.7028 9.9186,10.4068 10.0206,10.0198 L10.0356,9.9138 C10.0456,9.8428 10.0606,9.7758 10.0806,9.7148 L10.0806,1.7408 C10.0806,1.5378 10.0256,1.3338 9.9126,1.1308 C9.8016,0.9268 9.6596,0.7428 9.4856,0.5808 C9.3126,0.4178 9.1196,0.2798 8.9056,0.1678 C8.6916,0.0558 8.4936,-0.0002 8.3096,-0.0002 L2.5966,-0.0002 C2.4126,-0.0002 2.2146,0.0508 2.0006,0.1528 C1.7866,0.2548 1.5936,0.3868 1.4206,0.5498 C1.2466,0.7128 1.1046,0.8958 0.9936,1.0998 C0.8806,1.3028 0.8256,1.4968 0.8256,2.1488 L0.8256,10.2448 C0.8256,9.9188 0.8556,10.0608 0.9156,10.2038 C0.9776,10.3458 1.0586,10.4838 1.1616,10.6158 C1.2626,10.7488 1.3746,10.8708 1.4966,10.9828 C1.6196,11.0948 1.7416,11.1808 1.8636,11.2418 C1.9246,11.2628 2.0216,11.2988 2.1536,11.3488 C2.2866,11.4008 2.3526,11.4358 2.3526,11.4558 L-0.0004,14.9998 L1.8436,14.9998 L2.4076,14.1848 L8.4686,14.1848 L9.0326,14.9998 Z" id="Fill-1" fill="#009DDC" mask="url(#mask-2)"></path>
        </g>
    </g>
</svg>